HIERARCHY
ROOT Hips
{
	OFFSET 0.00 0.00 0.00
	CHANNELS 6 Xposition Yposition Zposition Xrotation Yrotation Zrotation
	JOINT LeftUpLeg
	{
		OFFSET 3.34807 0.00000 0.00000
		CHANNELS 3 Xrotation Yrotation Zrotation
		JOINT LeftLeg
		{
			OFFSET 0.00000 -16.98552 0.00000
			CHANNELS 3 Xrotation Yrotation Zrotation
			JOINT LeftFoot
			{
				OFFSET 0.00000 -16.83686 0.00000
				CHANNELS 3 Xrotation Yrotation Zrotation
				JOINT LeftToeBase
				{
					OFFSET 0.00000 -1.59599 5.95633
					CHANNELS 3 Xrotation Yrotation Zrotation
					End Site
					{
						OFFSET 0.00000 0.00000 2.95275
					}
				}
			}
		}
	}
	JOINT RightUpLeg
	{
		OFFSET -3.34807 0.00000 0.00000
		CHANNELS 3 Xrotation Yrotation Zrotation
		JOINT RightLeg
		{
			OFFSET 0.00000 -16.98552 0.00000
			CHANNELS 3 Xrotation Yrotation Zrotation
			JOINT RightFoot
			{
				OFFSET 0.00000 -16.83686 0.00000
				CHANNELS 3 Xrotation Yrotation Zrotation
				JOINT RightToeBase
				{
					OFFSET 0.00000 -1.59599 5.95633
					CHANNELS 3 Xrotation Yrotation Zrotation
					End Site
					{
						OFFSET 0.00000 0.00000 2.95275
					}
				}
			}
		}
	}
	JOINT Spine
	{
		OFFSET 0.00000 0.03937 0.00000
		CHANNELS 3 Xrotation Yrotation Zrotation
		JOINT Spine1
		{
			OFFSET 0.00000 7.93124 0.00000
			CHANNELS 3 Xrotation Yrotation Zrotation
			JOINT Neck
			{
				OFFSET 0.00000 8.48368 0.00000
				CHANNELS 3 Xrotation Yrotation Zrotation
				JOINT Head
				{
					OFFSET 0.00000 6.65077 0.00000
					CHANNELS 3 Xrotation Yrotation Zrotation
					End Site
					{
						OFFSET 0.00000 4.52755 0.00000
					}
				}
			}
			JOINT LeftShoulder
			{
				OFFSET 0.00000 8.48368 0.00000
				CHANNELS 3 Xrotation Yrotation Zrotation
				JOINT LeftArm
				{
					OFFSET 7.74502 -0.00003 0.00000
					CHANNELS 3 Xrotation Yrotation Zrotation
					JOINT LeftForeArm
					{
						OFFSET 12.49824 -0.00005 0.00000
						CHANNELS 3 Xrotation Yrotation Zrotation
						JOINT LeftHand
						{
							OFFSET 9.88337 -0.00004 0.00000
							CHANNELS 3 Xrotation Yrotation Zrotation
							JOINT LeftHandThumb
							{
								OFFSET 0.00000 0.00000 0.00000
								CHANNELS 3 Xrotation Yrotation Zrotation
								End Site
								{
									OFFSET 0.00000 0.00000 3.93700
								}
							}
							JOINT L_Wrist_End
							{
								OFFSET 3.93700 -0.00001 0.00000
								CHANNELS 3 Xrotation Yrotation Zrotation
							}
						}
					}
				}
			}
			JOINT RightShoulder
			{
				OFFSET 0.00000 8.48368 0.00000
				CHANNELS 3 Xrotation Yrotation Zrotation
				JOINT RightArm
				{
					OFFSET -7.74502 -0.00003 0.00000
					CHANNELS 3 Xrotation Yrotation Zrotation
					JOINT RightForeArm
					{
						OFFSET -12.49824 -0.00005 0.00000
						CHANNELS 3 Xrotation Yrotation Zrotation
						JOINT RightHand
						{
							OFFSET -9.88337 -0.00004 0.00000
							CHANNELS 3 Xrotation Yrotation Zrotation
							JOINT RightHandThumb
							{
								OFFSET 0.00000 0.00000 0.00000
								CHANNELS 3 Xrotation Yrotation Zrotation
								End Site
								{
									OFFSET 0.00000 0.00000 3.93700
								}
							}
							JOINT R_Wrist_End
							{
								OFFSET -5.39369 -0.00002 0.00000
								CHANNELS 3 Xrotation Yrotation Zrotation
							}
						}
					}
				}
			}
		}
	}
}
MOTION
Frames: 12
Frame Time: 0.066664
 0.9249 37.2888 0.2512 -2.8839 -3.3933 -6.3999 2.3916 10.6166 11.8298 27.1809 -0.0000 0.0000 3.3461 -11.8268 -15.7229 -21.0542 0.0000 -0.0000 3.7522 -9.8188 5.2481 18.1426 -0.0000 0.0000 7.5120 1.3834 22.8491 -11.3869 0.0000 0.0000 -2.6566 -2.4769 1.4926 11.8037 -6.2764 1.2929 -13.0769 8.4654 3.0457 -10.2242 -7.0999 -1.1170 -8.8679 20.9643 21.9877 -1.4967 -46.3888 -92.1736 -0.0001 -30.7549 -0.0000 -17.4225 -34.2063 19.2591 -0.0000 0.0000 -0.0000 -0.0000 0.0000 -0.0000 17.0689 -13.2348 -8.8025 -36.5348 38.6306 96.4271 -0.0000 5.2089 0.0000 81.0736 -72.6486 -109.4726 -0.0000 0.0000 -0.0000 -0.0000 0.0000 -0.0000
 0.7276 36.9678 0.4315 -3.0924 -2.1456 -5.7722 -1.3553 7.8271 12.6364 35.7659 -0.0000 0.0000 -4.3077 -10.4278 -27.4318 -2.0809 0.0000 -0.0000 3.9134 -12.4716 4.5118 19.9160 -0.0000 0.0000 4.2995 3.3939 22.4003 -11.6089 0.0000 0.0000 -2.5293 -1.8002 1.6727 12.3918 -5.7319 0.8213 -12.5922 7.6969 2.6219 -10.7850 -7.6747 -1.1442 -9.2403 20.7169 22.3843 -4.2211 -45.8752 -93.4433 -0.0001 -29.4242 -0.0000 -15.0099 -33.8473 19.6838 -0.0000 0.0000 -0.0000 -0.0000 0.0000 -0.0000 17.4607 -12.5941 -9.0849 -37.4065 40.0216 96.7215 -0.0000 5.1698 0.0000 78.9891 -73.6179 -110.3180 -0.0000 0.0000 -0.0000 -0.0000 0.0000 -0.0000
 0.7155 37.3915 0.7374 -2.6911 -1.5032 -4.6972 -2.4825 8.4934 12.0761 34.2889 -0.0000 0.0000 -11.7636 -9.5631 -27.5416 -1.7440 0.0000 -0.0000 5.5133 -14.3040 4.1498 16.4656 -0.0000 0.0000 7.9442 2.6829 20.9112 -13.3856 0.0000 0.0000 -2.8517 -1.6287 1.5497 12.0147 -5.7708 -0.0045 -12.8306 7.7658 2.5956 -10.1698 -7.6369 -1.2469 -9.0984 20.9337 22.5796 -4.0028 -45.6483 -93.3956 -0.0001 -29.6826 -0.0000 -14.7020 -33.3181 20.0696 -0.0000 -0.0000 0.0000 -0.0000 -0.0000 0.0000 17.5768 -12.8366 -8.9222 -38.4843 41.4659 97.8313 -0.0000 4.6106 0.0000 84.7902 -73.0992 -108.4139 -0.0000 0.0000 -0.0000 -0.0000 0.0000 -0.0000
 0.9476 38.3027 1.0209 -2.5797 -1.7514 -3.3007 -0.6924 11.6096 9.7444 26.9425 -0.0000 0.0000 -5.2515 -4.9093 -16.3569 1.0713 0.0000 0.0000 6.2403 -15.1873 2.9240 12.9206 -0.0000 0.0000 17.1784 1.7533 18.9069 -19.1913 0.0000 0.0000 -3.3447 -1.6286 1.2728 12.2662 -6.0260 -1.0206 -13.5717 8.0644 2.7653 -9.1549 -7.3291 -1.4300 -8.8531 20.9174 22.9592 -3.2421 -46.5578 -93.6198 -0.0001 -30.2016 -0.0000 -14.5690 -32.6335 19.1978 -0.0000 -0.0000 0.0000 -0.0000 -0.0000 0.0000 17.6511 -12.9339 -9.2006 -38.0790 41.3484 98.6715 -0.0000 6.1142 0.0000 81.5716 -72.8484 -109.0131 -0.0000 0.0000 -0.0000 -0.0000 0.0000 -0.0000
 1.2887 38.8697 1.2361 -2.4782 -2.2339 -2.6909 1.9162 16.5430 8.1117 17.6050 -0.0000 0.0000 2.8393 -5.5932 -24.3069 -2.8311 -0.0000 0.0000 5.1046 -14.9194 1.6463 13.0421 -0.0000 0.0000 23.4006 1.2721 18.0018 -23.2308 0.0000 -0.0000 -3.5095 -1.8070 1.1255 12.1930 -6.2511 -1.2276 -13.7659 8.3264 2.8706 -8.4935 -7.0284 -1.6116 -9.1664 20.7334 23.6069 -2.0753 -48.3955 -94.0060 -0.0001 -31.2247 -0.0000 -15.9022 -31.6260 17.7486 -0.0000 -0.0000 0.0000 -0.0000 -0.0000 0.0000 17.4468 -13.4661 -9.7321 -37.4763 42.6985 99.1622 -0.0000 8.2275 0.0000 80.2415 -72.2841 -108.7743 -0.0000 0.0000 -0.0000 -0.0000 0.0000 -0.0000
 1.7253 38.7145 1.3866 -2.5462 -2.1493 -2.2986 4.2572 16.9822 6.5143 11.6006 -0.0000 0.0000 13.9366 -12.1744 -18.5404 -6.0782 0.0000 -0.0000 3.8690 -13.4741 0.3126 15.6398 -0.0000 0.0000 21.3420 0.6263 19.0558 -23.3351 0.0000 -0.0000 -3.6994 -2.1107 1.0965 12.5015 -6.5974 -1.3718 -13.6795 8.4542 3.1025 -8.1935 -6.9452 -2.4597 -9.2622 20.6915 23.2158 -1.3114 -49.8953 -93.2308 -0.0001 -31.9416 -0.0000 -15.9224 -31.5527 17.1885 -0.0000 -0.0000 0.0000 -0.0000 -0.0000 0.0000 17.7758 -13.7755 -9.4174 -36.9162 42.7695 98.5557 -0.0000 8.7654 0.0000 79.2234 -71.7727 -109.2982 -0.0000 0.0000 -0.0000 -0.0000 0.0000 -0.0000
 2.1406 37.7914 1.4631 -2.6837 -1.5856 -3.0719 3.7371 17.4869 7.2996 14.5220 -0.0000 0.0000 8.3993 -13.1472 -16.9286 -16.1526 0.0000 -0.0000 3.5787 -9.3655 0.6323 19.2148 -0.0000 0.0000 10.8420 -2.0512 23.7728 -16.3022 0.0000 -0.0000 -3.5916 -2.3441 1.1828 12.7498 -6.6703 -0.7897 -13.0673 8.5424 3.5110 -8.8392 -7.7116 -2.7923 -9.3406 21.0655 23.2760 -3.0069 -50.5136 -93.9366 -0.0001 -31.1742 -0.0000 -15.1151 -31.5516 16.7721 -0.0000 0.0000 -0.0000 -0.0000 0.0000 -0.0000 18.1890 -13.9680 -8.6772 -36.2234 41.8387 97.3865 -0.0000 7.8495 0.0000 79.4126 -71.6518 -109.5223 -0.0000 0.0000 -0.0000 -0.0000 0.0000 -0.0000
 2.5299 36.7569 1.4442 -2.9658 -1.9327 -3.4442 2.6349 15.2748 7.1124 19.7958 -0.0000 0.0000 -3.3413 -10.5451 -18.3322 -8.9969 0.0000 0.0000 3.4814 -7.5384 -0.0175 21.9315 -0.0000 0.0000 0.5534 -2.3114 27.6330 -8.7915 -0.0000 0.0000 -3.2542 -2.2418 0.8762 13.1696 -6.5299 -0.6839 -12.4930 8.5373 3.6264 -10.0423 -8.5330 -2.0988 -9.1599 21.1517 22.2343 -3.9270 -49.5391 -93.5016 -0.0001 -29.4735 -0.0000 -16.7566 -32.5816 18.1916 -0.0000 0.0000 -0.0000 -0.0000 0.0000 -0.0000 18.6270 -13.0696 -6.8306 -36.6088 40.2321 96.2377 -0.0000 4.1373 0.0000 80.5201 -72.9880 -109.9645 -0.0000 0.0000 -0.0000 -0.0000 0.0000 -0.0000
 2.7951 36.3924 1.5079 -3.1229 -3.4551 -3.3889 2.7900 16.6590 6.7021 20.9462 -0.0000 0.0000 -6.8897 -10.8360 -18.3986 -7.0218 0.0000 0.0000 3.9893 -6.8682 -1.0684 21.5174 -0.0000 0.0000 -4.6080 -2.0261 32.8417 -1.1295 -0.0000 0.0000 -3.4153 -1.8115 0.3253 13.3239 -6.0949 -0.7998 -12.4794 8.3712 3.6471 -9.5495 -8.9583 -1.5108 -8.9908 21.0659 22.5191 -6.1866 -47.8714 -95.8674 -0.0001 -25.2227 -0.0000 -16.5663 -32.6783 19.3296 -0.0000 0.0000 -0.0000 -0.0000 0.0000 -0.0000 18.1391 -12.4401 -6.9051 -38.3647 39.7668 98.3601 0.0000 -0.0999 0.0000 86.7954 -73.6678 -106.7621 -0.0000 0.0000 -0.0000 -0.0000 0.0000 -0.0000
 2.8513 36.8292 1.6069 -2.6068 -4.0779 -3.7955 3.4082 18.8877 6.9579 17.8938 -0.0000 0.0000 -2.5914 -12.4751 -18.5597 -8.4906 0.0000 -0.0000 4.6170 -6.8836 -0.9027 19.8577 -0.0000 0.0000 -8.2735 -3.8384 34.6506 -7.9330 0.0000 -0.0000 -3.4837 -2.0822 0.5457 12.4131 -6.3627 -0.7641 -13.1375 8.1881 3.4268 -8.8051 -8.5960 -1.0292 -8.6621 21.3805 21.8867 -4.7394 -48.4289 -95.1627 -0.0001 -24.9149 -0.0000 -16.7004 -32.7213 19.0451 -0.0000 -0.0000 0.0000 -0.0000 -0.0000 0.0000 17.9142 -12.7212 -7.0860 -38.5363 40.5426 99.8807 -0.0000 1.3445 0.0000 87.3994 -73.7956 -105.7895 -0.0000 0.0000 -0.0000 -0.0000 0.0000 -0.0000
 2.6867 37.6986 1.6314 -2.2345 -3.7816 -4.7410 3.5576 19.9143 8.0567 14.2386 -0.0000 0.0000 6.4052 -13.8236 -17.9849 -13.7876 0.0000 -0.0000 4.8994 -5.7030 0.3193 19.9439 -0.0000 0.0000 -7.9762 -8.3511 29.3073 -11.2919 0.0000 -0.0000 -3.6282 -2.3521 0.8568 12.3124 -6.4990 -0.2429 -13.5521 8.0524 3.7143 -9.2073 -8.8575 -1.2483 -8.5813 20.9032 22.6958 -4.1615 -48.8158 -95.9897 -0.0001 -26.3118 -0.0000 -17.5565 -32.5087 18.0732 -0.0000 0.0000 -0.0000 -0.0000 0.0000 -0.0000 18.0938 -13.2418 -7.5287 -37.5147 39.0468 99.4612 -0.0000 3.9241 0.0000 81.6256 -73.2920 -108.2968 -0.0000 0.0000 -0.0000 -0.0000 0.0000 -0.0000
 2.4743 38.3706 1.6240 -1.9747 -3.5848 -5.1886 3.1557 20.7128 8.8956 11.9851 -0.0000 0.0000 14.7082 -15.3075 -15.7308 -20.3867 0.0000 0.0000 5.5075 -7.8142 0.4491 17.3310 -0.0000 0.0000 -0.2643 -4.8589 29.9750 -11.4045 0.0000 0.0000 -3.7205 -2.4456 1.1968 12.2023 -6.5052 0.1177 -13.8926 7.9683 3.7315 -8.7009 -8.7304 -1.3689 -8.6346 20.6998 23.1046 -3.1411 -49.9905 -95.8464 -0.0001 -28.8305 -0.0000 -18.1154 -32.9445 18.4119 -0.0000 0.0000 -0.0000 -0.0000 0.0000 -0.0000 17.5869 -13.5092 -8.4635 -37.0068 40.2050 98.9085 -0.0000 5.7416 0.0000 82.0820 -71.2601 -107.5404 -0.0000 0.0000 -0.0000 -0.0000 0.0000 -0.0000
